<svg xmlns="http://www.w3.org/2000/svg" viewBox="0 0 512 512" width="512" height="512">
  <defs>
    <filter id="f1"><feGaussianBlur stdDeviation="3" result="b"/><feMerge><feMergeNode in="b"/><feMergeNode in="SourceGraphic"/></feMerge></filter>
    <filter id="f2"><feGaussianBlur stdDeviation="6" result="b"/><feMerge><feMergeNode in="b"/><feMergeNode in="SourceGraphic"/></feMerge></filter>
    <filter id="f3"><feGaussianBlur stdDeviation="14"/></filter>
    <filter id="f4"><feGaussianBlur stdDeviation="22"/></filter>
    <filter id="f5"><feGaussianBlur stdDeviation="1.5" result="b"/><feMerge><feMergeNode in="b"/><feMergeNode in="SourceGraphic"/></feMerge></filter>
  </defs>
  <circle cx="240" cy="235" r="245" fill="#f59e0b" opacity="0.04" filter="url(#f4)"/>
  <circle cx="240" cy="235" r="150" fill="#fbbf24" opacity="0.07" filter="url(#f3)"/>
  <circle cx="240" cy="235" r="70" fill="#fde68a" opacity="0.1" filter="url(#f3)"/>
  <ellipse cx="240" cy="235" rx="220" ry="85" fill="none" stroke="#f59e0b" stroke-width="1.8" opacity="0.3" transform="rotate(-20, 240, 235)" filter="url(#f5)"/>
  <ellipse cx="240" cy="235" rx="185" ry="70" fill="none" stroke="#fbbf24" stroke-width="1.5" opacity="0.25" transform="rotate(30, 240, 235)" filter="url(#f5)"/>
  <ellipse cx="240" cy="235" rx="240" ry="100" fill="none" stroke="#d97706" stroke-width="1.2" opacity="0.18" transform="rotate(-50, 240, 235)"/>
  <ellipse cx="240" cy="235" rx="160" ry="60" fill="none" stroke="#fbbf24" stroke-width="1" opacity="0.2" transform="rotate(55, 240, 235)"/>
  <ellipse cx="240" cy="235" rx="200" ry="200" fill="none" stroke="#92400e" stroke-width="0.8" opacity="0.1"/>
  <ellipse cx="240" cy="235" rx="130" ry="130" fill="none" stroke="#d97706" stroke-width="0.6" opacity="0.12"/>
  <path d="M 250 195 Q 320 160, 380 110 Q 420 75, 460 30" stroke="#fbbf24" stroke-width="2" fill="none" opacity="0.55" filter="url(#f5)"/>
  <path d="M 260 200 Q 340 180, 430 130 Q 470 105, 500 70" stroke="#f59e0b" stroke-width="1.5" fill="none" opacity="0.4" filter="url(#f5)"/>
  <path d="M 220 190 Q 150 140, 80 75 Q 50 48, 15 15" stroke="#fbbf24" stroke-width="2" fill="none" opacity="0.55" filter="url(#f5)"/>
  <path d="M 210 195 Q 130 155, 40 100 Q 10 80, -20 50" stroke="#f59e0b" stroke-width="1.5" fill="none" opacity="0.4"/>
  <path d="M 290 240 Q 360 230, 430 195 Q 470 178, 510 155" stroke="#fbbf24" stroke-width="1.8" fill="none" opacity="0.45" filter="url(#f5)"/>
  <path d="M 295 255 Q 380 265, 460 300 Q 490 315, 510 340" stroke="#f59e0b" stroke-width="1.5" fill="none" opacity="0.38"/>
  <path d="M 190 240 Q 120 230, 50 195 Q 10 178, -30 155" stroke="#fbbf24" stroke-width="1.8" fill="none" opacity="0.45" filter="url(#f5)"/>
  <path d="M 185 255 Q 100 265, 20 300 Q -10 315, -30 340" stroke="#f59e0b" stroke-width="1.5" fill="none" opacity="0.38"/>
  <path d="M 230 290 Q 200 360, 150 430 Q 120 470, 80 505" stroke="#d97706" stroke-width="1.2" fill="none" opacity="0.3"/>
  <path d="M 250 290 Q 280 360, 330 430 Q 360 470, 400 505" stroke="#d97706" stroke-width="1.2" fill="none" opacity="0.3"/>
  <path d="M 240 295 Q 240 380, 240 495" stroke="#f59e0b" stroke-width="1.5" fill="none" opacity="0.35" filter="url(#f5)"/>
  <path d="M 270 205 Q 350 140, 450 80 Q 485 58, 508 35" stroke="#d97706" stroke-width="1" fill="none" opacity="0.28"/>
  <path d="M 210 205 Q 130 140, 30 80 Q -5 58, -28 35" stroke="#d97706" stroke-width="1" fill="none" opacity="0.28"/>
  <path d="M 280 270 Q 370 310, 450 380 Q 488 418, 505 455" stroke="#92400e" stroke-width="0.8" fill="none" opacity="0.2"/>
  <path d="M 200 270 Q 110 310, 30 380 Q -8 418, -25 455" stroke="#92400e" stroke-width="0.8" fill="none" opacity="0.2"/>
  <circle cx="420" cy="180" r="3.5" fill="#fbbf24" filter="url(#f1)" opacity="0.65"/>
  <circle cx="60" cy="290" r="3.5" fill="#fbbf24" filter="url(#f1)" opacity="0.6"/>
  <circle cx="340" cy="115" r="3" fill="#fde68a" filter="url(#f1)" opacity="0.6"/>
  <circle cx="140" cy="355" r="3" fill="#f59e0b" filter="url(#f1)" opacity="0.5"/>
  <circle cx="380" cy="310" r="3" fill="#f59e0b" filter="url(#f1)" opacity="0.55"/>
  <circle cx="100" cy="160" r="3" fill="#fbbf24" filter="url(#f1)" opacity="0.6"/>
  <circle cx="300" cy="90" r="3.5" fill="#fde68a" filter="url(#f1)" opacity="0.65"/>
  <circle cx="180" cy="380" r="2.5" fill="#d97706" filter="url(#f1)" opacity="0.45"/>
  <circle cx="460" cy="30" r="4" fill="#fde68a" filter="url(#f1)" opacity="0.65"/>
  <circle cx="15" cy="15" r="4" fill="#fde68a" filter="url(#f1)" opacity="0.65"/>
  <circle cx="500" cy="70" r="3.5" fill="#fbbf24" filter="url(#f1)" opacity="0.55"/>
  <circle cx="510" cy="155" r="3.5" fill="#fbbf24" filter="url(#f1)" opacity="0.55"/>
  <circle cx="510" cy="340" r="3" fill="#f59e0b" filter="url(#f1)" opacity="0.45"/>
  <circle cx="-10" cy="155" r="3.5" fill="#fbbf24" filter="url(#f1)" opacity="0.55"/>
  <circle cx="-10" cy="340" r="3" fill="#f59e0b" filter="url(#f1)" opacity="0.45"/>
  <circle cx="240" cy="495" r="3" fill="#d97706" filter="url(#f1)" opacity="0.4"/>
  <circle cx="80" cy="505" r="2.5" fill="#92400e" filter="url(#f1)" opacity="0.3"/>
  <circle cx="400" cy="505" r="2.5" fill="#92400e" filter="url(#f1)" opacity="0.3"/>
  <circle cx="450" cy="130" r="2.5" fill="#f59e0b" filter="url(#f5)" opacity="0.45"/>
  <circle cx="30" cy="100" r="2.5" fill="#f59e0b" filter="url(#f5)" opacity="0.45"/>
  <circle cx="470" cy="260" r="2" fill="#d97706" filter="url(#f5)" opacity="0.35"/>
  <circle cx="10" cy="215" r="2" fill="#d97706" filter="url(#f5)" opacity="0.35"/>
  <circle cx="350" cy="440" r="2" fill="#92400e" filter="url(#f5)" opacity="0.28"/>
  <circle cx="130" cy="445" r="2" fill="#92400e" filter="url(#f5)" opacity="0.28"/>
  <circle cx="485" cy="50" r="2" fill="#fbbf24" opacity="0.4"/>
  <circle cx="395" cy="45" r="1.5" fill="#f59e0b" opacity="0.35"/>
  <circle cx="85" cy="48" r="1.5" fill="#f59e0b" opacity="0.35"/>
  <circle cx="500" cy="200" r="1.5" fill="#d97706" opacity="0.3"/>
  <circle cx="-20" cy="200" r="1.5" fill="#d97706" opacity="0.3"/>
  <circle cx="490" cy="380" r="1.2" fill="#92400e" opacity="0.22"/>
  <circle cx="-10" cy="385" r="1.2" fill="#92400e" opacity="0.22"/>
  <circle cx="175" cy="190" r="2.5" fill="#fde68a" filter="url(#f5)" opacity="0.6"/>
  <circle cx="305" cy="190" r="2.5" fill="#fde68a" filter="url(#f5)" opacity="0.6"/>
  <circle cx="170" cy="280" r="2" fill="#fbbf24" filter="url(#f5)" opacity="0.5"/>
  <circle cx="310" cy="275" r="2" fill="#fbbf24" filter="url(#f5)" opacity="0.5"/>
  <circle cx="160" cy="235" r="2" fill="#fbbf24" filter="url(#f5)" opacity="0.55"/>
  <circle cx="320" cy="235" r="2" fill="#fbbf24" filter="url(#f5)" opacity="0.55"/>
  <g transform="rotate(45, 240, 275)">
    <rect x="112" y="195" width="218" height="148" rx="12" fill="#fbbf24" opacity="0.1" filter="url(#f2)"/>
    <rect x="125" y="205" width="195" height="130" rx="5" fill="#f59e0b" filter="url(#f1)"/>
    <rect x="128" y="208" width="189" height="124" rx="4" fill="#fbbf24" opacity="0.5"/>
    <rect x="128" y="208" width="189" height="18" rx="3" fill="#fde68a" opacity="0.35"/>
    <path d="M 125 205 L 142 188 L 337 188 L 320 205 Z" fill="#fde68a" opacity="0.9"/>
    <path d="M 320 205 L 337 188 L 337 318 L 320 335 Z" fill="#d97706" opacity="0.8"/>
    <rect x="152" y="230" width="138" height="80" rx="4" fill="none" stroke="#fde68a" stroke-width="2" opacity="0.22"/>
    <path d="M 170 258 Q 198 245, 222 260 Q 246 275, 270 258" stroke="#fef3c7" stroke-width="1.5" fill="none" opacity="0.1"/>
    <circle cx="140" cy="220" r="4.5" fill="#fde68a" opacity="0.5" filter="url(#f5)"/>
    <circle cx="308" cy="220" r="4.5" fill="#fde68a" opacity="0.45" filter="url(#f5)"/>
    <circle cx="140" cy="322" r="4" fill="#fbbf24" opacity="0.4" filter="url(#f5)"/>
    <circle cx="308" cy="322" r="4" fill="#fbbf24" opacity="0.4" filter="url(#f5)"/>
    <rect x="200" y="335" width="40" height="100" rx="7" fill="#d97706"/>
    <rect x="203" y="338" width="34" height="94" rx="5" fill="#f59e0b" opacity="0.35"/>
    <line x1="200" y1="355" x2="240" y2="365" stroke="#fde68a" stroke-width="2" opacity="0.22"/>
    <line x1="200" y1="372" x2="240" y2="382" stroke="#fde68a" stroke-width="2" opacity="0.22"/>
    <line x1="200" y1="389" x2="240" y2="399" stroke="#fde68a" stroke-width="2" opacity="0.22"/>
    <line x1="200" y1="406" x2="240" y2="416" stroke="#fde68a" stroke-width="2" opacity="0.22"/>
    <path d="M 192 435 L 200 426 L 240 426 L 248 435 L 248 445 Q 248 452, 240 452 L 200 452 Q 192 452, 192 445 Z" fill="#f59e0b"/>
    <path d="M 248 440 Q 268 444, 276 458 Q 284 475, 270 484" stroke="#d97706" stroke-width="4" fill="none" stroke-linecap="round" opacity="0.5"/>
  </g>
</svg>