<svg xmlns="http://www.w3.org/2000/svg" viewBox="0 0 24 24" width="24" height="24" fill="none">
  <!-- Left flame -->
  <path d="M7 22C7 22 3 16 3 13a4 4 0 0 1 8 0c0 3-4 9-4 9z" fill="#991B1B"/>
  <path d="M7 18C7 18 5 14.5 5 13a2 2 0 0 1 4 0c0 1.5-2 5-2 5z" fill="#DC2626"/>
  <!-- Center flame (tallest) -->
  <path d="M12 20C12 20 6 11 6 7a6 6 0 0 1 12 0c0 4-6 13-6 13z" fill="#DC2626"/>
  <path d="M12 16C12 16 8 10 8 7.5a4 4 0 0 1 8 0C16 10 12 16 12 16z" fill="#EF4444"/>
  <path d="M12 12c0 0-2 2-2 3.5a2 2 0 0 0 4 0c0-1.5-2-3.5-2-3.5z" fill="#FDE68A"/>
  <!-- Right flame -->
  <path d="M17 22C17 22 13 16 13 13a4 4 0 0 1 8 0c0 3-4 9-4 9z" fill="#991B1B"/>
  <path d="M17 18C17 18 15 14.5 15 13a2 2 0 0 1 4 0c0 1.5-2 5-2 5z" fill="#DC2626"/>
</svg>