<svg xmlns="http://www.w3.org/2000/svg" viewBox="0 0 24 24" width="24" height="24" fill="none">
  <!-- Left flame -->
  <path d="M7 20C5.5 17 5 14.5 6 12c.6-1.5 1.5-2.5 1.5-4S6 5 6 5s2 1.5 2.5 4c.3 1.2-.3 2.5-.3 2.5s1-1.2 1.5-3C10.2 6.5 9 4 9 4s3 2.5 3.5 6c.2 1.5-.5 3-.5 3s1-.8 1.5-2.5c.3-1 .2-2 .2-2s2 2.5 1.5 6C14.8 17.5 12 20 9 20.5c-1.5.2-2 0-2-.5z" fill="#DC2626"/>
  <!-- Right flame -->
  <path d="M14 20c-1 0-2-1-2-1s3-1.5 3.5-5c.3-2-.5-3.5-.5-3.5s1.5 1 2 3c.3 1-.1 2-.1 2s.6-.5 1-1.5c.3-.7.3-1.5.3-1.5s1.5 2 1 5c-.5 2.5-2.5 3-3.5 3-.5 0-1-.3-1.7-.5z" fill="#DC2626"/>
  <!-- Center flame body -->
  <path d="M9 20c-.8-.5-1.8-1.8-1.5-4 .2-1.5 1.2-2.8 1.5-3.5.3-.7.2-1.5.2-1.5s1 1.2 1.2 2.8c.1.7-.1 1.3-.1 1.3s.6-.7 1-1.8c.3-.8.2-1.5.2-1.5s1.2 1 1.2 3c0 2-1 3.8-2.2 4.5-.6.3-1 .5-1.5.7z" fill="#EF4444"/>
  <!-- Inner core -->
  <path d="M10 20c-.4-.3-1-.9-.9-2 .1-.7.6-1.4.8-1.7 0 0 .5.6.6 1.3.1.5 0 1 0 1s.3-.4.5-.8c.1-.4.1-.7.1-.7s.5.4.5 1.3c0 .7-.4 1.3-.9 1.6-.2.1-.5.1-.7 0z" fill="#FDE68A"/>
</svg>